<svg width="351" height="164" viewBox="0 0 351 164" fill="none" xmlns="http://www.w3.org/2000/svg">
<path d="M135.39 33.8858C158.51 19.0558 183.18 15.5657 208.85 25.9657C235.92 36.9257 251.44 57.7458 257.07 86.5058C256.24 86.5558 255.7 86.6058 255.17 86.6058C245.7 86.6058 236.24 86.5757 226.77 86.6457C225.27 86.6557 224.74 86.1557 224.54 84.7157C220.54 56.5557 198.51 34.1958 170.68 30.0158C159.07 28.2758 147.78 29.5258 136.85 33.8658C136.4 34.0458 135.93 34.1857 135.48 34.3457C135.45 34.1957 135.43 34.0358 135.4 33.8858H135.39Z" fill="white"/>
<path d="M198.51 46.9758C198.01 46.7958 197.5 46.6258 197.01 46.4358C166.72 34.7158 133.11 51.1158 123.77 82.1858C123.74 82.2958 123.7 82.3958 123.66 82.5058C123.23 83.8858 123.2 85.8058 122.26 86.4858C121.29 87.1858 119.44 86.7058 117.98 86.7058C111.05 86.7058 104.12 86.7058 97.18 86.7058H95C100.89 64.7358 113.76 48.9958 134.44 40.0558C157.76 29.9758 183.17 35.2658 198.5 46.9758H198.51Z" fill="white"/>
<path d="M110.55 44.5658C104.09 44.5658 98.97 39.4558 98.96 32.9958C98.96 26.5658 104.15 21.4058 110.58 21.4458C116.94 21.4858 122.05 26.5758 122.12 32.9458C122.19 39.3058 116.95 44.5558 110.54 44.5658H110.55Z" fill="white"/>
<path d="M208.49 11.4258C208.67 4.80578 213.88 -0.194205 220.38 0.00579497C226.73 0.205795 231.62 5.54575 231.45 12.0858C231.29 18.1357 225.92 23.2158 219.8 23.0958C213.43 22.9758 208.32 17.6958 208.49 11.4258Z" fill="white"/>
<path d="M3.34366 150.786V113.035H22.7045C27.4504 113.035 30.794 114.221 33.0052 116.378C34.5152 117.942 35.432 119.938 35.432 122.526V122.634C35.432 127.003 33.0052 129.591 29.6076 131.047C34.1916 132.557 37.1038 135.146 37.1038 140.269V140.377C37.1038 146.903 31.8726 150.786 22.8124 150.786H3.34366ZM25.1314 124.792V124.684C25.1314 122.526 23.5674 121.448 20.3855 121.448H13.5364V128.081H20.1159C23.3517 128.081 25.1314 127.003 25.1314 124.792ZM26.6414 138.921V138.813C26.6414 136.71 25.0235 135.416 21.5181 135.416H13.5364V142.373H21.6259C24.8617 142.373 26.6414 141.132 26.6414 138.921ZM41.8952 150.786V113.035H59.746C65.5705 113.035 69.5073 114.545 72.0421 117.08C74.2532 119.291 75.3857 122.257 75.3857 125.87V125.978C75.3857 131.802 72.3656 135.631 67.6198 137.627L76.6261 150.786H64.5997L56.9956 139.353H52.3576V150.786H41.8952ZM52.3576 131.155H59.3146C62.82 131.155 64.9233 129.429 64.9233 126.679V126.571C64.9233 123.551 62.7122 122.041 59.2606 122.041H52.3576V131.155ZM80.927 150.786V113.035H91.3894V150.786H80.927ZM98.3005 150.786V113.035H112.916C126.344 113.035 134.164 120.747 134.164 131.695V131.802C134.164 142.75 126.236 150.786 112.7 150.786H98.3005ZM113.023 122.257H108.763V141.51H113.023C119.333 141.51 123.486 138.058 123.486 131.964V131.856C123.486 125.762 119.333 122.257 113.023 122.257ZM158.844 151.541C147.033 151.541 138.35 143.505 138.35 132.018V131.91C138.35 120.909 146.979 112.28 158.628 112.28C165.315 112.28 169.899 114.275 173.944 117.727L167.796 125.169C165.046 122.85 162.511 121.61 158.682 121.61C153.289 121.61 149.028 126.14 149.028 131.91V132.018C149.028 138.166 153.289 142.534 159.275 142.534C161.864 142.534 163.805 141.995 165.315 140.971V136.386H157.927V128.728H175.238V145.662C171.194 149.06 165.801 151.541 158.844 151.541ZM181.039 150.786V113.035H211.401V121.879H191.393V127.65H209.514V135.901H191.393V141.887H211.671V150.786H181.039ZM252.484 151.541C240.673 151.541 231.99 143.505 231.99 132.018V131.91C231.99 120.909 240.619 112.28 252.268 112.28C258.955 112.28 263.539 114.275 267.584 117.727L261.436 125.169C258.686 122.85 256.151 121.61 252.322 121.61C246.929 121.61 242.669 126.14 242.669 131.91V132.018C242.669 138.166 246.929 142.534 252.915 142.534C255.504 142.534 257.445 141.995 258.955 140.971V136.386H251.567V128.728H268.879V145.662C264.834 149.06 259.441 151.541 252.484 151.541ZM271.713 150.786L287.73 112.765H297.815L313.886 150.786H302.669L299.972 143.991H285.357L282.661 150.786H271.713ZM288.431 135.847H296.898L292.692 125.169L288.431 135.847ZM317.549 150.786V113.035H333.782C343.274 113.035 349.422 117.888 349.422 126.248V126.355C349.422 135.308 342.573 140 333.243 140H328.012V150.786H317.549ZM328.012 131.802H333.027C336.694 131.802 339.013 129.861 339.013 126.841V126.733C339.013 123.497 336.694 121.825 332.973 121.825H328.012V131.802Z" fill="white"/>
</svg>
